<?xml version="1.0" standalone="no"?>
<!DOCTYPE svg PUBLIC "-//W3C//DTD SVG 20010904//EN"
 "http://www.w3.org/TR/2001/REC-SVG-20010904/DTD/svg10.dtd">
<svg version="1.0" xmlns="http://www.w3.org/2000/svg"
 width="500.000000pt" height="500.000000pt" viewBox="0 0 500.000000 500.000000"
 preserveAspectRatio="xMidYMid meet">
<metadata>
Created by potrace 1.14, written by Peter Selinger 2001-2017
</metadata>
<g transform="translate(0.000000,500.000000) scale(0.100000,-0.100000)"
fill="#000000" stroke="none">
<path d="M3355 4404 c-154 -24 -310 -116 -408 -242 -12 -16 -24 -21 -35 -17
-46 18 -189 56 -226 60 -22 2 -66 7 -96 11 -116 14 -296 5 -443 -22 -24 -4
-144 -37 -195 -52 -28 -9 -36 -7 -60 12 -40 34 -129 81 -192 102 -42 14 -87
18 -195 18 -131 0 -144 -1 -210 -28 -38 -16 -89 -42 -113 -58 -56 -38 -148
-133 -174 -180 -19 -34 -22 -35 -50 -26 -16 6 -62 8 -101 6 -86 -6 -149 -35
-225 -103 -60 -54 -93 -105 -125 -195 -14 -41 -28 -64 -40 -66 -52 -7 -126
-78 -160 -154 -29 -66 -28 -180 2 -240 30 -58 66 -97 115 -122 60 -31 77 -32
251 -25 57 2 59 -4 32 -67 -30 -69 -73 -220 -91 -321 -29 -162 -27 -448 4
-620 15 -79 54 -210 95 -315 45 -113 58 -140 123 -239 53 -80 55 -85 43 -115
-34 -83 -40 -183 -16 -250 24 -68 76 -133 130 -162 43 -24 66 -44 71 -64 0 -3
3 -12 7 -20 3 -8 8 -38 11 -67 4 -50 31 -113 48 -113 4 0 8 -7 8 -15 0 -11
-12 -15 -42 -16 -24 0 -50 -2 -58 -4 -8 -1 -33 -6 -55 -10 -22 -3 -44 -8 -50
-9 -5 -2 -27 -6 -47 -10 -50 -11 -69 -33 -44 -52 19 -13 130 -42 195 -49 20
-3 50 -7 66 -9 69 -11 217 -26 310 -31 55 -3 120 -7 145 -10 25 -2 108 -6 185
-10 77 -4 158 -9 180 -11 53 -5 1010 -5 1100 0 39 2 129 7 200 11 503 27 757
55 870 98 58 21 55 41 -8 58 -44 13 -47 13 -117 23 -25 3 -63 9 -85 12 -107
15 -376 27 -609 27 -182 0 -188 1 -165 18 13 9 26 16 30 13 7 -4 242 113 285
143 16 11 50 35 77 52 66 43 115 84 252 213 l60 57 342 1 c384 0 406 4 479 75
134 129 109 374 -46 461 -19 10 -36 19 -37 20 -2 0 -14 38 -27 85 -44 149
-131 280 -225 335 l-27 16 -1 226 c0 172 -5 246 -17 307 -10 44 -19 90 -22
103 -2 13 -15 57 -28 98 -20 62 -21 74 -9 74 13 0 72 -16 278 -76 94 -28 131
-29 151 -5 29 33 45 99 50 202 4 112 -13 189 -74 320 -34 73 -160 275 -199
319 -7 8 -47 56 -89 105 -246 290 -489 462 -719 511 -39 8 -202 13 -240 8z
m-1521 -3649 c20 -8 36 -20 36 -25 0 -10 -24 -15 -45 -10 -5 1 -36 2 -67 1
-91 -2 -68 32 33 48 4 1 23 -6 43 -14z"/>
</g>
</svg>
